<svg xmlns="http://www.w3.org/2000/svg" viewBox="0 0 100 100">
  <circle cx="50" cy="50" r="45" fill="none" stroke="currentColor" stroke-width="4"/>
  <!-- 时针 -->
  <line x1="50" y1="50" x2="50" y2="25" stroke="currentColor" stroke-width="4" stroke-linecap="round" transform="rotate(45, 50, 50)"/>
  <!-- 分针 -->
  <line x1="50" y1="50" x2="50" y2="20" stroke="currentColor" stroke-width="3" stroke-linecap="round" transform="rotate(180, 50, 50)"/>
  <!-- 中心点 -->
  <circle cx="50" cy="50" r="3" fill="currentColor"/>
  <!-- 刻度 -->
  <g stroke="currentColor" stroke-width="2">
    <line x1="50" y1="10" x2="50" y2="15" transform="rotate(0, 50, 50)"/>
    <line x1="50" y1="10" x2="50" y2="15" transform="rotate(30, 50, 50)"/>
    <line x1="50" y1="10" x2="50" y2="15" transform="rotate(60, 50, 50)"/>
    <line x1="50" y1="10" x2="50" y2="15" transform="rotate(90, 50, 50)"/>
    <line x1="50" y1="10" x2="50" y2="15" transform="rotate(120, 50, 50)"/>
    <line x1="50" y1="10" x2="50" y2="15" transform="rotate(150, 50, 50)"/>
    <line x1="50" y1="10" x2="50" y2="15" transform="rotate(180, 50, 50)"/>
    <line x1="50" y1="10" x2="50" y2="15" transform="rotate(210, 50, 50)"/>
    <line x1="50" y1="10" x2="50" y2="15" transform="rotate(240, 50, 50)"/>
    <line x1="50" y1="10" x2="50" y2="15" transform="rotate(270, 50, 50)"/>
    <line x1="50" y1="10" x2="50" y2="15" transform="rotate(300, 50, 50)"/>
    <line x1="50" y1="10" x2="50" y2="15" transform="rotate(330, 50, 50)"/>
  </g>
  <style>
    svg { color: #000; }
    @media (prefers-color-scheme: dark) {
      svg { color: #FFF; }
    }
  </style>
</svg>
